<?xml version="1.0" encoding="utf-8"?>
<!-- Generator: Adobe Illustrator 25.0.1, SVG Export Plug-In . SVG Version: 6.00 Build 0)  -->
<svg version="1.1" xmlns="http://www.w3.org/2000/svg" xmlns:xlink="http://www.w3.org/1999/xlink" x="0px" y="0px"
	 viewBox="0 0 1366 768" style="enable-background:new 0 0 1366 768;" xml:space="preserve">
<style type="text/css">
	.st0{fill:#0D0B1C;}
	.st1{display:none;}
	.st2{display:inline;fill:none;stroke:#474973;stroke-miterlimit:10;}
	.st3{clip-path:url(#SVGID_2_);fill:#191C3F;}
	.st4{clip-path:url(#SVGID_2_);fill:#0D0B1C;}
	.st5{clip-path:url(#SVGID_2_);fill:#272E4F;}
	.st6{clip-path:url(#SVGID_2_);fill:#3F3859;}
	.st7{clip-path:url(#SVGID_2_);fill:#302B47;}
	.st8{clip-path:url(#SVGID_2_);fill:#222035;}
	.st9{clip-path:url(#SVGID_2_);fill:#25243A;stroke:#222035;stroke-miterlimit:10;}
	.st10{clip-path:url(#SVGID_2_);fill:#3C3649;}
	.st11{clip-path:url(#SVGID_2_);fill:#EDDBC7;}
	.st12{clip-path:url(#SVGID_2_);fill:#222035;stroke:#222035;stroke-miterlimit:10;}
	.st13{clip-path:url(#SVGID_2_);fill:#73657F;}
	.st14{clip-path:url(#SVGID_2_);fill:#13132B;}
	.st15{clip-path:url(#SVGID_2_);fill:#171B30;}
	.st16{clip-path:url(#SVGID_2_);fill:#19162D;stroke:#171B30;stroke-miterlimit:10;}
	.st17{clip-path:url(#SVGID_2_);fill:#171735;stroke:#16163D;stroke-miterlimit:10;}
	.st18{clip-path:url(#SVGID_2_);fill:#14123F;stroke:#14123F;stroke-miterlimit:10;}
	.st19{clip-path:url(#SVGID_2_);fill:none;stroke:url(#SVGID_3_);stroke-miterlimit:10;}
	.st20{clip-path:url(#SVGID_2_);fill:none;stroke:url(#SVGID_4_);stroke-miterlimit:10;}
	.st21{clip-path:url(#SVGID_2_);fill:none;stroke:#0D0B1C;stroke-miterlimit:10;}
	.st22{clip-path:url(#SVGID_2_);fill:#0D0B1C;stroke:#0D0B1C;stroke-miterlimit:10;}
	.st23{clip-path:url(#SVGID_2_);fill:url(#SVGID_5_);}
	.st24{opacity:0.41;clip-path:url(#SVGID_2_);fill:url(#SVGID_6_);}
	.st25{clip-path:url(#SVGID_2_);fill:#FFFFFF;stroke:#000000;stroke-miterlimit:10;}
</style>
<g id="Layer_1">
</g>
<g id="Layer_2">
	<rect x="-0.5" y="-0.5" class="st0" width="1366" height="768"/>
</g>
<g id="Layer_19">
</g>
<g id="Layer_20">
</g>
<g id="dark" class="st1">
	<polyline class="st2" points="405.3,646.5 443.3,624.5 452.5,590.5 495,553.8 495,514.8 469.5,486.5 480,403.5 458.5,369.5 
		500.2,321.7 531.5,299.5 519.3,247.5 480,199.1 464.8,182.9 448.5,165.5 411,155.2 	"/>
	<polyline class="st2" points="464.8,182.9 506.5,127.5 531.5,89.6 531.5,26 569,26 608.5,-1 	"/>
	<polyline class="st2" points="794.5,0 806.7,59.5 872.5,99.5 901.1,135.2 958.8,135.2 	"/>
</g>
<g id="normal" class="st1">
	<polyline class="st2" points="954.2,769.7 901.5,747.5 911.5,715.5 912.5,686.5 882.5,652.5 904.5,613.5 941.5,630.5 954.2,631.8 	
		"/>
	<polyline class="st2" points="911.5,715.5 848.5,717.5 813.5,680.5 784.5,662.5 795.9,634 799.5,625.3 819.5,575.5 794.5,592.5 
		792.5,622.5 	"/>
	<polyline class="st2" points="848,653.1 848,613.5 779.5,513.5 779.5,485.4 836.5,466.5 878.5,487.5 911.5,543.8 934.5,551.5 	"/>
	<polyline class="st2" points="794.5,505.5 848,505.5 857,497.8 	"/>
	<line class="st2" x1="768.5" y1="414.5" x2="755.5" y2="392.5"/>
	<polygon class="st2" points="825.8,414.5 848,436.1 874.1,436.1 895.5,466.5 918.3,471.2 934.5,432.8 894.5,419.5 870.8,414.5 
		880.1,425.4 857,423.8 837.5,407.5 	"/>
	<polyline class="st2" points="958.8,318.5 911.5,367.9 942.3,394.9 897.9,392.5 864.5,379.5 842.5,356.7 829.7,356.7 822.5,330.5 
		771.5,318.5 755.5,331.7 784.5,322.7 803.5,348.5 767.2,368.7 755.5,392.5 779.5,376.1 784.5,383.5 825.8,368.7 842.5,379.5 
		832.5,397.5 795.4,391.7 794.5,405.7 784.5,405.7 774.4,423.3 768.5,433.5 775.5,453.5 809.5,461.5 822.3,461.5 822.3,471.2 	"/>
	<polyline class="st2" points="838.5,294.5 819.5,270.9 819.5,255.3 838.5,247.5 860.1,261.5 889.5,261.5 857.1,282.4 848,277.5 
		819.5,302.5 822.5,330.5 	"/>
	<polyline class="st2" points="864.2,289 911.5,303.8 950.5,257.5 934.5,210.9 897.9,189.5 871.5,189.5 871.5,163.5 835.5,184.5 
		812.5,152.5 768.5,165.7 733.5,134.5 738.5,106.5 694.5,68.5 652.5,59.5 586.5,104.5 565,181.6 576.5,214.5 565,258.5 578.5,298.5 
		565,318.5 538.5,326.5 520.6,326.5 515.5,347.5 549.5,371.5 576.5,423.5 581.5,446.5 560.9,439.4 551.5,456.5 528,466.5 
		511.5,482.5 533.5,492.5 511.5,505.5 518.5,535.5 519.5,589.5 484.4,653.1 449.5,667.5 453.5,704.5 439.2,717.5 444.5,733.5 
		423.5,746.5 433.5,768 	"/>
</g>
<g id="light" class="st1">
	<polyline class="st2" points="532.9,464.4 559.5,490.5 559.5,554.4 579.9,575.5 608.5,601.5 576.5,624.5 521.1,624.5 500.2,624.5 	
		"/>
	<polyline class="st2" points="554.4,321.7 554.4,341.4 578.9,341.4 608.5,337.5 613.5,359.5 632.9,403.5 598.2,414.5 579.1,435.5 	
		"/>
	<polyline class="st2" points="652.5,59.5 617.5,122.5 628.5,163.5 599.5,199.5 632.9,289 599.5,338.7 	"/>
	<polyline class="st2" points="699.3,72.6 709.5,103.5 738.5,106.5 	"/>
	<line class="st2" x1="860.1" y1="261.5" x2="942.2" y2="233.2"/>
	<polygon class="st2" points="538.5,680.5 575.1,691.6 599.5,686.1 599.5,666.2 569,666.2 	"/>
	<polygon class="st2" points="583.5,738.5 613.5,753.5 644.5,753.5 660.9,738.5 632.9,717.5 593.6,717.5 569,728.9 	"/>
	<polygon class="st2" points="810.5,740.5 784.5,767.5 848,769.7 854.5,749.1 	"/>
</g>
<g id="thelightest" class="st1">
	<polyline class="st2" points="559.5,511 612.7,544.4 632.9,584.3 603.2,596.7 	"/>
	<polyline class="st2" points="611.2,185 652.5,252.7 629.9,280.9 	"/>
	<polyline class="st2" points="658.5,98.5 642.5,132.5 658.5,168.8 695.8,203.5 718.9,177.5 725.5,142.8 733.2,106.5 712.5,132.5 
		682.5,142.8 662.5,122.5 658.5,98.5 687,66.9 	"/>
	<polyline class="st2" points="934.5,218 889.5,233.2 819.5,233.2 784.5,222.8 825.8,191.9 831.9,179.5 	"/>
</g>
<g id="Layer_13">
</g>
<g id="Layer_14">
	<g id="rybson" class="st1">
		<polyline class="st2" points="644.5,520.5 657.5,472.5 674.5,462.5 		"/>
		<polyline class="st2" points="689.5,448.5 682.5,416.9 657.5,472.5 		"/>
		<polyline class="st2" points="686.5,455.5 701.5,442.5 733.8,449 		"/>
		<line class="st2" x1="773.5" y1="458.5" x2="791.8" y2="455.5"/>
		<polyline class="st2" points="687.4,439.2 704.5,435.5 721.7,416.9 758.5,410.5 		"/>
		<polyline class="st2" points="779.2,491.5 748.9,491.5 710.2,481.4 668.5,499.5 634.5,539.5 637.5,579.5 657.5,602.4 695.5,620.5 
			789.5,623.5 		"/>
		<polyline class="st2" points="796.3,600.5 731.5,600.5 676.5,585.5 659.5,567.6 646.5,569.5 641.5,545.5 657.5,520.5 705.5,501.5 
			764.5,506.5 791.8,527.8 		"/>
		<polyline class="st2" points="686.5,472.5 694.5,455.5 706.5,476.5 		"/>
		<ellipse class="st2" cx="694" cy="474" rx="7.5" ry="6.5"/>
		<circle class="st2" cx="757" cy="462" r="16.5"/>
		<polyline class="st2" points="754.5,451.5 782.6,378.4 825.5,435.5 782.6,387.2 758.5,451.5 		"/>
		<polyline class="st2" points="799.5,548.5 779.5,528.5 745.5,515.5 706.5,520.5 666.5,533.5 657.5,539.1 659.5,551 664,572.3 		
			"/>
		<polyline class="st2" points="664.2,517.9 674.5,545.7 670.1,515.5 694,506.1 703.1,543.9 700,506.1 		"/>
		<polyline class="st2" points="718.9,502.6 721.5,540.5 723,503 		"/>
		<polyline class="st2" points="764.5,506.5 758.5,542.2 769.2,510.2 		"/>
		<polyline class="st2" points="778.8,517.6 773.5,551 782.6,520.5 		"/>
		<polyline class="st2" points="673.5,580.2 686.5,560 676.5,585.5 		"/>
		<polyline class="st2" points="691.6,589.6 701.5,564.7 696.5,592.7 715.9,596.2 720.9,569.4 720.9,597.6 		"/>
		<polyline class="st2" points="757,600.5 757,572.3 763.9,600.5 778.1,600.5 778.1,570.5 782.6,600.5 		"/>
	</g>
</g>
<g id="Layer_15">
</g>
<g id="Layer_16">
	<g id="Layer_17">
	</g>
	<g id="Layer_25">
	</g>
</g>
<g id="Layer_11">
</g>
<g id="Layer_12">
</g>
<g id="Layer_10">
</g>
<g id="Layer_9">
</g>
<g id="Layer_18">
</g>
<g id="Layer_26">
</g>
<g id="ojej" class="st1">
	<polygon class="st2" points="434.5,617.5 466.5,633.5 520.5,631.5 575.7,600.5 516.5,589.5 495.2,594.4 469.2,600.5 	"/>
	<polyline class="st2" points="512.2,590.5 513.9,572.8 495.2,594.4 	"/>
	<path class="st2" d="M549.5,634.5l-12-12.6L549.5,634.5z"/>
	<line class="st2" x1="532.4" y1="628.2" x2="549.5" y2="634.5"/>
	<polyline class="st2" points="543.5,618.6 556.5,625.5 549.5,615.2 	"/>
	<polygon class="st2" points="575.7,600.5 603.5,585.5 589.6,600.5 603.5,611.5 	"/>
	<polyline class="st2" points="469.2,600.5 475.7,615.2 466.5,633.5 	"/>
	<path class="st2" d="M452.9,615.2"/>
</g>
<g id="Layer_21">
</g>
<g id="Layer_24">
</g>
<g id="Layer_22">
</g>
<g id="Layer_23">
	<g>
		<defs>
			<rect id="SVGID_1_" width="1362" height="764"/>
		</defs>
		<clipPath id="SVGID_2_">
			<use xlink:href="#SVGID_1_"  style="overflow:visible;"/>
		</clipPath>
		<path class="st3" d="M514,470c8-11.1,22.7-14.7,34-9c12.7,6.4,18.4,22.9,11.5,36.8c0,4.4,0.5,8.8,0.5,13.2l-0.5,43.4l49,42.3
			l81,69.5c-15.8,13.6,5.3,28.2-10.5,41.8c19.5,20.3,51.5,44.7,71,65l-342.4-5C443.1,668.7,478.5,569.3,514,470z"/>
		<polygon class="st4" points="738.5,106.5 773,127.1 752,148 733.5,134.5 		"/>
		<polygon class="st5" points="603.2,596.7 631.9,578.3 718.9,634.5 839,642.1 911.5,715.5 990.4,769.7 724,768 627,680 647,664 		
			"/>
		<path class="st4" d="M1027,623c-94.1-1-165.2,6.7-216,15c0,0-97.5,15.8-154-15c-11.6-6.3-18-16-18-16c-5.1-7.7-6.3-14.8-7-18
			c-7.3-31.7-53.5-33.9-69-73c-3.1-7.7-4.1-14.8-11-26c-6.7-10.9-14.5-18.4-20-23c-20.3-149.7-40.7-299.3-61-449l488,6L1027,623z"/>
		<path class="st6" d="M682.5,416.9"/>
		<polyline class="st7" points="644.5,520.5 658,471 682.5,416.9 689.5,445.5 691.6,438.3 704.5,435.5 721.7,416.9 762,407.5 
			842.5,439.2 850.5,476.5 844.4,575.5 816.2,630.8 789.5,625.5 695.5,620.5 657.5,602.4 637.5,579.5 634.5,539.5 		"/>
		<polygon class="st8" points="683,488.7 683,492.2 698,487 		"/>
		<polygon class="st4" points="664.2,570.5 658.5,537.3 691.6,525.3 720,519.1 748,515.5 769.8,524.8 782.6,531.6 802.9,551 
			819.8,572.3 808.2,603.6 778.8,600.5 733.8,603.6 694,594.4 674.5,585.5 		"/>
		<ellipse class="st9" cx="692.8" cy="474.1" rx="7.8" ry="7.1"/>
		<polyline class="st10" points="686.5,591 686.5,572 691,593.1 		"/>
		<polyline class="st10" points="697,595.3 697,579 700,597.1 		"/>
		<polyline class="st10" points="675,587 675,559.2 677.6,590 		"/>
		<polyline class="st10" points="707,598.6 707,576 709.9,601 		"/>
		<polyline class="st10" points="679.9,529.2 681.3,556.9 677.2,526.3 		"/>
		<polyline class="st10" points="686.6,524.8 687.5,543 684.5,522.9 		"/>
		<polyline class="st10" points="694.2,524.8 695.7,552.5 691.5,521.9 		"/>
		<polyline class="st10" points="705.1,521.6 702.8,545.5 702,518.7 		"/>
		<polyline class="st10" points="716.7,518.7 714.3,533.2 714.3,516.7 		"/>
		<polyline class="st10" points="763.4,522 761,536.5 761,520 		"/>
		<polyline class="st10" points="790.4,538 788,552.5 788,536 		"/>
		<polyline class="st10" points="786.2,532.2 782.5,554.8 782,529 		"/>
		<polyline class="st10" points="798.5,546.9 795,568 795,544 		"/>
		<polyline class="st10" points="724.4,518.9 722.3,536.6 727.6,517.4 		"/>
		<polyline class="st10" points="707.7,521.9 708.8,536.8 710.1,520.1 		"/>
		<polyline class="st10" points="771,525.2 772.1,540.1 773.4,523.4 		"/>
		<polyline class="st10" points="760,602.1 760,578 756.3,604.7 		"/>
		<polyline class="st10" points="769.5,602.2 772.8,578.3 765.5,604.2 		"/>
		<polyline class="st10" points="785.1,601.4 785.1,572 782.4,604.6 		"/>
		<polyline class="st10" points="794,603 794,578.9 790.3,605.6 		"/>
		<polygon class="st8" points="669.2,578.3 659.5,568.1 646,564 641.5,546 657.5,521 687,506.5 705.5,502 725.8,502 751.6,502 
			766.3,508.4 779.5,514 805.2,554.3 772.6,526.4 742.5,516.7 717,521.5 690,526.5 673.5,532.4 660,545 662.4,560.5 		"/>
		<ellipse class="st11" cx="690.5" cy="474.5" rx="2.5" ry="4.5"/>
		<polyline class="st8" points="685,464.4 696.5,455.5 708.5,476.5 		"/>
		<polyline class="st8" points="682,418 658,471 673.5,463.1 		"/>
		<path class="st8" d="M704.5,435.5"/>
		<polyline class="st8" points="658,471 668.4,501.6 634.5,539.5 		"/>
		<polyline class="st8" points="637.5,579.5 657.5,592.9 680,608.2 706.5,618.5 747.5,618.5 796.3,620.4 801.5,620.4 799.5,625.3 
			775.5,625.3 696.5,623.5 657.5,603.6 		"/>
		<path class="st12" d="M743.5,456.5c-0.3,1.1-1.8,6.2,1,11c3,5.2,8.9,6.2,11,6.6c3.2,0.6,5.7,0.2,6.5,0c5.8-1.1,9.3-4.9,10.4-6.3
			c-0.3,1.1-2.6,8.3-9.9,11.7c-1.6,0.7-8.4,3.6-15,0c-1.4-0.7-5.3-3.1-7-8C737.8,463.7,743.1,456.9,743.5,456.5z"/>
		<path class="st12" d="M754.5,449"/>
		<polyline class="st8" points="773,411 754.5,449 752,409.8 758.3,408.4 758,437 773,411 		"/>
		<polyline class="st8" points="814.7,478.1 806.3,466.2 788.6,482.7 		"/>
		<polygon class="st8" points="828,469 846.7,466 854.5,447.5 842.5,439.2 820.5,439.1 812,439.1 812,439.1 784.4,434 808,442.9 
			820.5,446.5 827.7,456.5 		"/>
		<polygon class="st13" points="517.6,338.7 520.6,326.5 554.4,321.7 554.4,341.4 596.4,338.4 624,352 630,379 596.2,416.7 
			579.1,435.5 561.8,388.8 543,367 		"/>
		<polygon class="st13" points="631,305 596.4,338.4 554.4,351.8 546.9,330.5 564.7,318.5 578.5,298.5 565,258.5 576.5,214.5 
			565,181.6 586.5,104.5 652.5,57.1 619,110 628.5,163.5 608.5,182.9 650.9,250 626,285.2 		"/>
		<polygon class="st13" points="831.9,179.5 823.1,199.1 806,220 840.3,233.2 893.7,232.9 937.2,218.8 897.9,189.5 869,189 
			871.5,163.5 		"/>
		<polygon class="st13" points="755.5,331.7 771.5,318.5 822.5,330.5 829.7,356.7 844.4,356.7 860.9,379.6 831,400.8 839,378.6 
			822,368 784.5,383.5 780,376 755.5,392.5 763.9,367.6 799.5,355.7 		"/>
		<polygon class="st13" points="559.5,511 626,552 628,578 615,616 559.5,554.4 		"/>
		<polyline class="st3" points="817,572 793,643 817.2,686.1 848,653.1 848,606.3 825.5,580.7 		"/>
		<polyline class="st13" points="785,433 808.2,439.2 843,439 824,404 831,400.8 839,378.6 822,368 773.5,378.6 770,389 		"/>
		<path class="st14" d="M520.6,326.5c12.1,1.5,24.3,3,36.4,4.5c7.2-10.8,14.3-21.7,21.5-32.5l-13.5-40c1.8-8.3,3.8-16.9,6-25.5
			c1.6-6.5,3.3-12.8,5-19c-3.7-10.8-7.3-21.6-11-32.4l21.5-77.1l66-45l6-60.5h-50L569,26h-37.5l-6.2,73l-66.6,83.8l52.5,50.3
			l20.3,33.8l-23.2,54.7l-49.8,47.8l21.5,34l96,20.5l-18-64l-40.4-21.3L520.6,326.5z"/>
		<path class="st14" d="M480,403.5l-10.5,83l25.5,28.3c-7,19.7-14,39.5-21,59.2c14.2,5.2,28.3,10.3,42.5,15.5l2.1-49l-7.1-35
			c4.2-4.2,8.3-8.3,12.5-12.5c-4.2-3.5-8.3-7-12.5-10.5l16.5-16l18-26.5l14.9-0.6c5-0.1,14.1-3.2,19.1-3.4c0.2-5.2-6.2-20.8-6-26
			c-10-11-9.5-9.6-15.5-21.2"/>
		<polyline class="st14" points="433.5,768 423.5,746.5 444.5,733.5 439.2,717.5 453.5,704.5 449.5,667.5 484.4,653.1 519.4,585.5 
			483.1,560 448.6,589.5 438,625.5 366,670 407.6,768 		"/>
		<path class="st14" d="M652.5,59.5l46.8,7.4l39.2,39.6l-5,28l35,31.2l51-14l16,32.9l36-21c-1.8,8.8-3.7,17.7-5.5,26.5
			c10.6-0.2,21.3-0.3,31.9-0.5c10.7,9.8,21.4,19.7,32.1,29.5c-13.3,5-26.7,10-40,15c32.3,11.7,64.7,23.3,97,35
			c-0.3-17.7-0.7-35.3-1-53c-5.4-4.2-10.9-8.3-16.3-12.5l4.2-35.2L982,150l-23.2-14.8L904,136l-31.5-36.5l-65.8-40L794.5,0
			c-45.3-0.3-90.7-0.7-136-1"/>
		<path class="st14" d="M953,251c-13.8,17.6-27.7,35.2-41.5,52.8L860.1,289L848,277.5l-28.5,25l10.2,54.2h14.7l12.8,21.7l40.8,14.1
			l36.6,2.4l-23-27.6l47.3-48.7c9.4-16.5,18.8-33,28.2-49.5"/>
		<polygon class="st14" points="778.8,517.6 844.4,608.2 880.1,589.5 934.5,551.5 911.5,545.7 878.5,487.5 836.5,466.5 779.5,485.4 
					"/>
		<path class="st14" d="M844.4,608.2l3.6,44.9c-11.3,10.3-22.7,20.6-34,30.9c11,11.3,22,22.7,33,34c86.1,5.4,146.9-21.5,150-48
			c3-25.3-45.2-61.8-117-80"/>
		<polygon class="st14" points="864.5,480.5 934.5,394.9 857.1,378.4 832.5,397.5 824,404 		"/>
		<polyline class="st15" points="836.5,466.5 851,455 864.5,480.5 		"/>
		<polygon class="st16" points="569,728.9 611.2,740.5 660.9,738.5 632.9,717.5 593.6,717.5 		"/>
		<polygon class="st16" points="554.5,679.5 599.5,686.1 599.5,666.2 565.7,667.8 		"/>
		<polyline class="st16" points="782.6,769.7 810.5,740.5 854.5,749.1 848,769.7 		"/>
		<polyline class="st15" points="755.5,331.7 741,378 773,411 799.5,377.3 808.2,351.8 		"/>
		<line class="st15" x1="859.5" y1="257.5" x2="889.5" y2="261.5"/>
		<path class="st15" d="M827,148"/>
		<path class="st15" d="M851,537"/>
		<path class="st4" d="M659,99c3.4-19,23.3-34.8,33-31c10.3,4,3.7,28,18,36c9.8,5.5,20.4-1.5,23,3c3,5.2-9.1,18.4-20,26
			c-8.5,6-18.6,13-30,10c-11.9-3.1-17.7-15.2-20-20C661.4,119.7,657,110.4,659,99z"/>
		<polyline class="st4" points="411,155.2 448.5,165.5 524.5,247.5 531.5,299.5 458.5,369.5 479.1,410.5 469.5,486.5 496,515 
			495.2,560 452.5,590.5 436.9,628.2 405.3,646.5 		"/>
		<polygon class="st4" points="450,194 531.5,89.6 531.5,26 569,26 608.5,-1 411,-1 395.9,199.1 		"/>
		<polyline class="st4" points="794.5,0 806.7,59.5 876.6,99 901.1,135.2 973.9,135.2 973.9,-0.5 		"/>
		<path class="st4" d="M901.1,673.6l17.2-20.5h40.4c9.6,4.5,21.9,12,32.2,24.9c32.6,40.5,14.9,95.4,13,101c-11.2,1.6-32.4,3.1-57-5
			c-22.2-7.3-37.4-19.1-45.5-26.5c5.6-16.7,11.2-33.3,16.8-50L901.1,673.6z"/>
		<polygon class="st4" points="569,728.9 611.2,740.5 660.9,738.5 644.5,753.5 613.5,753.5 		"/>
		<polygon class="st4" points="565.7,667.8 559.5,678.9 599.5,686.1 575.1,691.6 538.5,680.5 559.5,667.8 		"/>
		<polygon class="st4" points="879.8,525 864,523.1 808,531 844,569.5 882.2,608 934.2,608 		"/>
		<polygon class="st4" points="870,432.9 865,442 891.1,442 887,454.9 1053,550.9 1044,373.9 935,395 899.5,436.9 854.5,413.4 		"/>
		<polyline class="st4" points="554,445 548.7,421.3 519.4,411.9 524.8,434 		"/>
		<polyline class="st4" points="524.8,492.2 488,486 512,508 		"/>
		<path class="st17" d="M435.5,617c2.6-2,5.4-4,8.5-6c6.7-4.3,13.2-7.6,19-10c14.3-2.7,28.7-5.3,43-8c9.9-0.4,21.4-0.3,34,1
			c13.6,1.4,25.6,3.8,35.7,6.5c-16.2,9.2-32.5,18.3-48.7,27.5c-12.5,3.7-23.2,5.3-31,6c-9.2,0.9-18.1,1.7-29.5-0.5
			c-12.1-2.3-18.6-6.3-20.5-7.5C441.4,623,437.9,619.7,435.5,617z"/>
		<polyline class="st18" points="512.9,572.8 489.5,595.5 511.5,592.5 		"/>
		<polygon class="st14" points="575.7,600.5 601.2,585.5 589.6,601.4 605.9,611.5 		"/>
		<polyline class="st18" points="538.5,621.4 554,633.7 533.2,624.7 		"/>
		<polyline class="st14" points="550,614.9 558.5,627.9 543.5,618.6 		"/>
		<radialGradient id="SVGID_3_" cx="473.6513" cy="617.0369" r="13.0068" gradientUnits="userSpaceOnUse">
			<stop  offset="0" style="stop-color:#3445B2"/>
			<stop  offset="0.1042" style="stop-color:#2F3EA1;stop-opacity:0.865"/>
			<stop  offset="0.3104" style="stop-color:#222D75;stop-opacity:0.598"/>
			<stop  offset="0.5962" style="stop-color:#0E122F;stop-opacity:0.2279"/>
			<stop  offset="0.7721" style="stop-color:#000000;stop-opacity:0"/>
		</radialGradient>
		<path class="st19" d="M471.5,599.5c1.2,1.6,2.8,4,4,7c1.3,3.3,1.9,6.3,2.1,8.4c0.2,2.2,0.2,6.6-2.1,11.6c-1.8,4-4.4,6.6-6,8"/>
		<radialGradient id="SVGID_4_" cx="526.6357" cy="607.5068" r="35.1614" gradientUnits="userSpaceOnUse">
			<stop  offset="0" style="stop-color:#3445B2"/>
			<stop  offset="0.1042" style="stop-color:#2F3EA1;stop-opacity:0.865"/>
			<stop  offset="0.3104" style="stop-color:#222D75;stop-opacity:0.598"/>
			<stop  offset="0.5962" style="stop-color:#0E122F;stop-opacity:0.2279"/>
			<stop  offset="0.7721" style="stop-color:#000000;stop-opacity:0"/>
		</radialGradient>
		<path class="st20" d="M477.5,614.5c11.7-0.5,24.1-1.5,37-3c22.4-2.6,42.9-6.5,61.2-11"/>
		<path class="st21" d="M435,616.5c1.8,0.3,3.6,0.6,5.5,1c3.8,0.8,7.1,1.9,10.1,2.9"/>
		<line class="st22" x1="461.8" y1="610" x2="463.8" y2="612.1"/>
		
			<radialGradient id="SVGID_5_" cx="539.0393" cy="606.1566" r="118.47" fx="493.4947" fy="643.7599" gradientUnits="userSpaceOnUse">
			<stop  offset="0" style="stop-color:#3445B2"/>
			<stop  offset="0.1042" style="stop-color:#2F3EA1;stop-opacity:0.865"/>
			<stop  offset="0.3104" style="stop-color:#222D75;stop-opacity:0.598"/>
			<stop  offset="0.5962" style="stop-color:#0E122F;stop-opacity:0.2279"/>
			<stop  offset="0.7721" style="stop-color:#000000;stop-opacity:0"/>
		</radialGradient>
		<path class="st23" d="M434.1,616.9c2.6-2,5.4-4,8.5-6c6.7-4.3,13.2-7.6,19-10c14.3-2.7,28.7-5.3,43-8c9.9-0.4,21.4-0.3,34,1
			c13.6,1.4,25.6,3.8,35.7,6.5c-16.2,9.2-32.5,18.3-48.7,27.5c-12.5,3.7-23.2,5.3-31,6c-9.2,0.9-18.1,1.7-29.5-0.5
			c-12.1-2.3-18.6-6.3-20.5-7.5C439.9,622.9,436.5,619.6,434.1,616.9z"/>
		<polyline class="st7" points="754.5,451.5 791.8,368 805,429 792.7,378.6 762,455.5 		"/>
		<circle class="st11" cx="805" cy="434" r="7"/>
		<polyline class="st3" points="901,674 918,697 901,748 928,766 973.9,738.5 969,698 921.5,683.6 		"/>
		<polyline class="st4" points="693.1,74.2 716.8,51.3 728.8,72.4 714.2,84.2 		"/>
		<polyline class="st4" points="732.8,76.9 712.8,90.9 715.4,95.8 735.4,81.8 		"/>
		<polyline class="st4" points="871.5,163.5 887,168 866,190 		"/>
		<polyline class="st4" points="930,219 942,224 891.6,234.6 		"/>
		<polyline class="st4" points="848,277.5 843,297 900,318.5 911.5,303.8 		"/>
		<radialGradient id="SVGID_6_" cx="805" cy="434" r="212.059" gradientUnits="userSpaceOnUse">
			<stop  offset="0" style="stop-color:#EDDBC7"/>
			<stop  offset="1" style="stop-color:#000000;stop-opacity:0"/>
		</radialGradient>
		<ellipse class="st24" cx="805" cy="434" rx="217" ry="207"/>
		<path class="st25" d="M575.7,667.8"/>
	</g>
</g>
</svg>
